<?xml version="1.0" encoding="UTF-8"?>
<svg xmlns="http://www.w3.org/2000/svg" width="1100" height="620" viewBox="0 0 1100 620">
<rect width="100%" height="100%" fill="white"/>
<text x="550" y="32" text-anchor="middle" font-family="sans-serif" font-size="24">Sinusoidal PWM switching waveforms</text>
<text x="550" y="56" text-anchor="middle" font-family="sans-serif" font-size="13">assumed teaching values: Ed=600 V, k=0.90, f1=50 Hz, fc=1.5 kHz</text>
<line x1="92.0" y1="82" x2="92.0" y2="544" stroke="#e5e7eb"/>
<text x="92.0" y="568" text-anchor="middle" font-family="sans-serif" font-size="13">0.00</text>
<line x1="254.2" y1="82" x2="254.2" y2="544" stroke="#e5e7eb"/>
<text x="254.2" y="568" text-anchor="middle" font-family="sans-serif" font-size="13">0.67</text>
<line x1="416.3" y1="82" x2="416.3" y2="544" stroke="#e5e7eb"/>
<text x="416.3" y="568" text-anchor="middle" font-family="sans-serif" font-size="13">1.33</text>
<line x1="578.5" y1="82" x2="578.5" y2="544" stroke="#e5e7eb"/>
<text x="578.5" y="568" text-anchor="middle" font-family="sans-serif" font-size="13">2.00</text>
<line x1="740.7" y1="82" x2="740.7" y2="544" stroke="#e5e7eb"/>
<text x="740.7" y="568" text-anchor="middle" font-family="sans-serif" font-size="13">2.67</text>
<line x1="902.8" y1="82" x2="902.8" y2="544" stroke="#e5e7eb"/>
<text x="902.8" y="568" text-anchor="middle" font-family="sans-serif" font-size="13">3.33</text>
<line x1="1065.0" y1="82" x2="1065.0" y2="544" stroke="#e5e7eb"/>
<text x="1065.0" y="568" text-anchor="middle" font-family="sans-serif" font-size="13">4.00</text>
<line x1="92" y1="544.0" x2="1065" y2="544.0" stroke="#e5e7eb"/>
<text x="82" y="549.0" text-anchor="end" font-family="sans-serif" font-size="13">-1.1</text>
<line x1="92" y1="467.0" x2="1065" y2="467.0" stroke="#e5e7eb"/>
<text x="82" y="472.0" text-anchor="end" font-family="sans-serif" font-size="13">-0.4</text>
<line x1="92" y1="390.0" x2="1065" y2="390.0" stroke="#e5e7eb"/>
<text x="82" y="395.0" text-anchor="end" font-family="sans-serif" font-size="13">0.3</text>
<line x1="92" y1="313.0" x2="1065" y2="313.0" stroke="#e5e7eb"/>
<text x="82" y="318.0" text-anchor="end" font-family="sans-serif" font-size="13">1.0</text>
<line x1="92" y1="236.0" x2="1065" y2="236.0" stroke="#e5e7eb"/>
<text x="82" y="241.0" text-anchor="end" font-family="sans-serif" font-size="13">1.7</text>
<line x1="92" y1="159.0" x2="1065" y2="159.0" stroke="#e5e7eb"/>
<text x="82" y="164.0" text-anchor="end" font-family="sans-serif" font-size="13">2.4</text>
<line x1="92" y1="82.0" x2="1065" y2="82.0" stroke="#e5e7eb"/>
<text x="82" y="87.0" text-anchor="end" font-family="sans-serif" font-size="13">3.1</text>
<rect x="92" y="82" width="973" height="462" fill="none" stroke="#111827" stroke-width="1.2"/>
<polyline points="92.00,533.00 97.94,516.89 103.88,500.77 109.82,484.66 115.76,468.55 121.70,452.43 127.64,436.32 133.58,420.21 139.52,404.09 145.46,387.98 151.40,371.87 157.34,355.75 163.28,339.64 169.22,323.53 175.16,318.59 181.10,334.70 187.04,350.81 192.98,366.93 198.92,383.04 204.86,399.15 210.80,415.27 216.74,431.38 222.68,447.49 228.62,463.61 234.56,479.72 240.50,495.83 246.44,511.95 252.38,528.06 258.32,521.83 264.26,505.71 270.21,489.60 276.15,473.49 282.09,457.38 288.03,441.26 293.97,425.15 299.91,409.04 305.85,392.92 311.79,376.81 317.73,360.70 323.67,344.58 329.61,328.47 335.55,313.64 341.49,329.76 347.43,345.87 353.37,361.98 359.31,378.10 365.25,394.21 371.19,410.32 377.13,426.44 383.07,442.55 389.01,458.66 394.95,474.78 400.89,490.89 406.83,507.00 412.77,523.12 418.71,526.77 424.65,510.66 430.59,494.54 436.53,478.43 442.47,462.32 448.41,446.20 454.35,430.09 460.29,413.98 466.23,397.86 472.17,381.75 478.11,365.64 484.05,349.52 489.99,333.41 495.93,317.30 501.87,324.82 507.81,340.93 513.75,357.04 519.69,373.16 525.63,389.27 531.57,405.38 537.51,421.50 543.45,437.61 549.39,453.72 555.33,469.84 561.27,485.95 567.21,502.06 573.15,518.18 579.09,531.71 585.03,515.60 590.97,499.48 596.91,483.37 602.85,467.26 608.79,451.14 614.74,435.03 620.68,418.92 626.62,402.80 632.56,386.69 638.50,370.58 644.44,354.46 650.38,338.35 656.32,322.24 662.26,319.88 668.20,335.99 674.14,352.10 680.08,368.21 686.02,384.33 691.96,400.44 697.90,416.55 703.84,432.67 709.78,448.78 715.72,464.89 721.66,481.01 727.60,497.12 733.54,513.23 739.48,529.35 745.42,520.54 751.36,504.43 757.30,488.31 763.24,472.20 769.18,456.09 775.12,439.97 781.06,423.86 787.00,407.75 792.94,391.63 798.88,375.52 804.82,359.41 810.76,343.29 816.70,327.18 822.64,314.93 828.58,331.05 834.52,347.16 840.46,363.27 846.40,379.39 852.34,395.50 858.28,411.61 864.22,427.73 870.16,443.84 876.10,459.95 882.04,476.07 887.98,492.18 893.92,508.29 899.86,524.41 905.80,525.48 911.74,509.37 917.68,493.25 923.62,477.14 929.56,461.03 935.50,444.91 941.44,428.80 947.38,412.69 953.32,396.57 959.26,380.46 965.21,364.35 971.15,348.23 977.09,332.12 983.03,316.01 988.97,326.11 994.91,342.22 1000.85,358.33 1006.79,374.45 1012.73,390.56 1018.67,406.67 1024.61,422.79 1030.55,438.90 1036.49,455.01 1042.43,471.12 1048.37,487.24 1054.31,503.35 1060.25,519.46" fill="none" stroke="#6b7280" stroke-width="2"/>
<line x1="110" y1="102" x2="140" y2="102" stroke="#6b7280" stroke-width="3"/>
<text x="148" y="107" font-family="sans-serif" font-size="13">carrier</text>
<polyline points="92.00,423.00 97.94,422.24 103.88,421.48 109.82,420.72 115.76,419.96 121.70,419.20 127.64,418.45 133.58,417.69 139.52,416.93 145.46,416.17 151.40,415.41 157.34,414.66 163.28,413.90 169.22,413.15 175.16,412.39 181.10,411.64 187.04,410.88 192.98,410.13 198.92,409.38 204.86,408.62 210.80,407.87 216.74,407.12 222.68,406.37 228.62,405.63 234.56,404.88 240.50,404.13 246.44,403.39 252.38,402.64 258.32,401.90 264.26,401.16 270.21,400.42 276.15,399.68 282.09,398.94 288.03,398.21 293.97,397.47 299.91,396.74 305.85,396.01 311.79,395.28 317.73,394.55 323.67,393.83 329.61,393.10 335.55,392.38 341.49,391.66 347.43,390.94 353.37,390.22 359.31,389.50 365.25,388.79 371.19,388.08 377.13,387.37 383.07,386.66 389.01,385.96 394.95,385.25 400.89,384.55 406.83,383.86 412.77,383.16 418.71,382.47 424.65,381.77 430.59,381.08 436.53,380.40 442.47,379.71 448.41,379.03 454.35,378.35 460.29,377.68 466.23,377.00 472.17,376.33 478.11,375.66 484.05,375.00 489.99,374.34 495.93,373.68 501.87,373.02 507.81,372.36 513.75,371.71 519.69,371.07 525.63,370.42 531.57,369.78 537.51,369.14 543.45,368.50 549.39,367.87 555.33,367.24 561.27,366.62 567.21,365.99 573.15,365.38 579.09,364.76 585.03,364.15 590.97,363.54 596.91,362.93 602.85,362.33 608.79,361.73 614.74,361.14 620.68,360.55 626.62,359.96 632.56,359.38 638.50,358.80 644.44,358.22 650.38,357.65 656.32,357.08 662.26,356.52 668.20,355.96 674.14,355.40 680.08,354.85 686.02,354.30 691.96,353.75 697.90,353.21 703.84,352.68 709.78,352.14 715.72,351.61 721.66,351.09 727.60,350.57 733.54,350.06 739.48,349.54 745.42,349.04 751.36,348.53 757.30,348.04 763.24,347.54 769.18,347.05 775.12,346.57 781.06,346.09 787.00,345.61 792.94,345.14 798.88,344.67 804.82,344.21 810.76,343.75 816.70,343.30 822.64,342.85 828.58,342.41 834.52,341.97 840.46,341.54 846.40,341.11 852.34,340.68 858.28,340.27 864.22,339.85 870.16,339.44 876.10,339.04 882.04,338.64 887.98,338.24 893.92,337.85 899.86,337.47 905.80,337.09 911.74,336.71 917.68,336.34 923.62,335.98 929.56,335.62 935.50,335.26 941.44,334.91 947.38,334.57 953.32,334.23 959.26,333.90 965.21,333.57 971.15,333.25 977.09,332.93 983.03,332.62 988.97,332.31 994.91,332.01 1000.85,331.71 1006.79,331.42 1012.73,331.13 1018.67,330.85 1024.61,330.58 1030.55,330.31 1036.49,330.05 1042.43,329.79 1048.37,329.53 1054.31,329.29 1060.25,329.04" fill="none" stroke="#2563eb" stroke-width="2"/>
<line x1="330" y1="102" x2="360" y2="102" stroke="#2563eb" stroke-width="3"/>
<text x="368" y="107" font-family="sans-serif" font-size="13">U reference</text>
<polyline points="92.00,239.30 97.94,239.30 103.88,239.30 109.82,239.30 115.76,239.30 121.70,239.30 127.64,239.30 133.58,239.30 139.52,287.70 145.46,287.70 151.40,287.70 157.34,287.70 163.28,287.70 169.22,287.70 175.16,287.70 181.10,287.70 187.04,287.70 192.98,287.70 198.92,287.70 204.86,287.70 210.80,239.30 216.74,239.30 222.68,239.30 228.62,239.30 234.56,239.30 240.50,239.30 246.44,239.30 252.38,239.30 258.32,239.30 264.26,239.30 270.21,239.30 276.15,239.30 282.09,239.30 288.03,239.30 293.97,239.30 299.91,239.30 305.85,287.70 311.79,287.70 317.73,287.70 323.67,287.70 329.61,287.70 335.55,287.70 341.49,287.70 347.43,287.70 353.37,287.70 359.31,287.70 365.25,239.30 371.19,239.30 377.13,239.30 383.07,239.30 389.01,239.30 394.95,239.30 400.89,239.30 406.83,239.30 412.77,239.30 418.71,239.30 424.65,239.30 430.59,239.30 436.53,239.30 442.47,239.30 448.41,239.30 454.35,239.30 460.29,239.30 466.23,239.30 472.17,239.30 478.11,287.70 484.05,287.70 489.99,287.70 495.93,287.70 501.87,287.70 507.81,287.70 513.75,287.70 519.69,239.30 525.63,239.30 531.57,239.30 537.51,239.30 543.45,239.30 549.39,239.30 555.33,239.30 561.27,239.30 567.21,239.30 573.15,239.30 579.09,239.30 585.03,239.30 590.97,239.30 596.91,239.30 602.85,239.30 608.79,239.30 614.74,239.30 620.68,239.30 626.62,239.30 632.56,239.30 638.50,239.30 644.44,287.70 650.38,287.70 656.32,287.70 662.26,287.70 668.20,287.70 674.14,287.70 680.08,239.30 686.02,239.30 691.96,239.30 697.90,239.30 703.84,239.30 709.78,239.30 715.72,239.30 721.66,239.30 727.60,239.30 733.54,239.30 739.48,239.30 745.42,239.30 751.36,239.30 757.30,239.30 763.24,239.30 769.18,239.30 775.12,239.30 781.06,239.30 787.00,239.30 792.94,239.30 798.88,239.30 804.82,239.30 810.76,287.70 816.70,287.70 822.64,287.70 828.58,287.70 834.52,239.30 840.46,239.30 846.40,239.30 852.34,239.30 858.28,239.30 864.22,239.30 870.16,239.30 876.10,239.30 882.04,239.30 887.98,239.30 893.92,239.30 899.86,239.30 905.80,239.30 911.74,239.30 917.68,239.30 923.62,239.30 929.56,239.30 935.50,239.30 941.44,239.30 947.38,239.30 953.32,239.30 959.26,239.30 965.21,239.30 971.15,239.30 977.09,287.70 983.03,287.70 988.97,287.70 994.91,239.30 1000.85,239.30 1006.79,239.30 1012.73,239.30 1018.67,239.30 1024.61,239.30 1030.55,239.30 1036.49,239.30 1042.43,239.30 1048.37,239.30 1054.31,239.30 1060.25,239.30" fill="none" stroke="#dc2626" stroke-width="2"/>
<line x1="550" y1="102" x2="580" y2="102" stroke="#dc2626" stroke-width="3"/>
<text x="588" y="107" font-family="sans-serif" font-size="13">U switch</text>
<polyline points="92.00,173.30 97.94,173.30 103.88,221.70 109.82,221.70 115.76,221.70 121.70,221.70 127.64,221.70 133.58,221.70 139.52,221.70 145.46,221.70 151.40,221.70 157.34,221.70 163.28,221.70 169.22,221.70 175.16,221.70 181.10,221.70 187.04,221.70 192.98,221.70 198.92,221.70 204.86,221.70 210.80,221.70 216.74,221.70 222.68,221.70 228.62,221.70 234.56,221.70 240.50,221.70 246.44,221.70 252.38,173.30 258.32,173.30 264.26,221.70 270.21,221.70 276.15,221.70 282.09,221.70 288.03,221.70 293.97,221.70 299.91,221.70 305.85,221.70 311.79,221.70 317.73,221.70 323.67,221.70 329.61,221.70 335.55,221.70 341.49,221.70 347.43,221.70 353.37,221.70 359.31,221.70 365.25,221.70 371.19,221.70 377.13,221.70 383.07,221.70 389.01,221.70 394.95,221.70 400.89,221.70 406.83,221.70 412.77,173.30 418.71,173.30 424.65,221.70 430.59,221.70 436.53,221.70 442.47,221.70 448.41,221.70 454.35,221.70 460.29,221.70 466.23,221.70 472.17,221.70 478.11,221.70 484.05,221.70 489.99,221.70 495.93,221.70 501.87,221.70 507.81,221.70 513.75,221.70 519.69,221.70 525.63,221.70 531.57,221.70 537.51,221.70 543.45,221.70 549.39,221.70 555.33,221.70 561.27,221.70 567.21,221.70 573.15,221.70 579.09,173.30 585.03,221.70 590.97,221.70 596.91,221.70 602.85,221.70 608.79,221.70 614.74,221.70 620.68,221.70 626.62,221.70 632.56,221.70 638.50,221.70 644.44,221.70 650.38,221.70 656.32,221.70 662.26,221.70 668.20,221.70 674.14,221.70 680.08,221.70 686.02,221.70 691.96,221.70 697.90,221.70 703.84,221.70 709.78,221.70 715.72,221.70 721.66,221.70 727.60,221.70 733.54,221.70 739.48,173.30 745.42,173.30 751.36,221.70 757.30,221.70 763.24,221.70 769.18,221.70 775.12,221.70 781.06,221.70 787.00,221.70 792.94,221.70 798.88,221.70 804.82,221.70 810.76,221.70 816.70,221.70 822.64,221.70 828.58,221.70 834.52,221.70 840.46,221.70 846.40,221.70 852.34,221.70 858.28,221.70 864.22,221.70 870.16,221.70 876.10,221.70 882.04,221.70 887.98,221.70 893.92,221.70 899.86,173.30 905.80,173.30 911.74,173.30 917.68,221.70 923.62,221.70 929.56,221.70 935.50,221.70 941.44,221.70 947.38,221.70 953.32,221.70 959.26,221.70 965.21,221.70 971.15,221.70 977.09,221.70 983.03,221.70 988.97,221.70 994.91,221.70 1000.85,221.70 1006.79,221.70 1012.73,221.70 1018.67,221.70 1024.61,221.70 1030.55,221.70 1036.49,221.70 1042.43,221.70 1048.37,221.70 1054.31,173.30 1060.25,173.30" fill="none" stroke="#16a34a" stroke-width="2"/>
<line x1="770" y1="102" x2="800" y2="102" stroke="#16a34a" stroke-width="3"/>
<text x="808" y="107" font-family="sans-serif" font-size="13">V switch</text>
<polyline points="92.00,107.30 97.94,107.30 103.88,107.30 109.82,107.30 115.76,107.30 121.70,107.30 127.64,107.30 133.58,107.30 139.52,107.30 145.46,107.30 151.40,107.30 157.34,107.30 163.28,155.70 169.22,155.70 175.16,155.70 181.10,155.70 187.04,107.30 192.98,107.30 198.92,107.30 204.86,107.30 210.80,107.30 216.74,107.30 222.68,107.30 228.62,107.30 234.56,107.30 240.50,107.30 246.44,107.30 252.38,107.30 258.32,107.30 264.26,107.30 270.21,107.30 276.15,107.30 282.09,107.30 288.03,107.30 293.97,107.30 299.91,107.30 305.85,107.30 311.79,107.30 317.73,107.30 323.67,155.70 329.61,155.70 335.55,155.70 341.49,155.70 347.43,155.70 353.37,107.30 359.31,107.30 365.25,107.30 371.19,107.30 377.13,107.30 383.07,107.30 389.01,107.30 394.95,107.30 400.89,107.30 406.83,107.30 412.77,107.30 418.71,107.30 424.65,107.30 430.59,107.30 436.53,107.30 442.47,107.30 448.41,107.30 454.35,107.30 460.29,107.30 466.23,107.30 472.17,107.30 478.11,155.70 484.05,155.70 489.99,155.70 495.93,155.70 501.87,155.70 507.81,155.70 513.75,155.70 519.69,155.70 525.63,107.30 531.57,107.30 537.51,107.30 543.45,107.30 549.39,107.30 555.33,107.30 561.27,107.30 567.21,107.30 573.15,107.30 579.09,107.30 585.03,107.30 590.97,107.30 596.91,107.30 602.85,107.30 608.79,107.30 614.74,107.30 620.68,107.30 626.62,107.30 632.56,155.70 638.50,155.70 644.44,155.70 650.38,155.70 656.32,155.70 662.26,155.70 668.20,155.70 674.14,155.70 680.08,155.70 686.02,155.70 691.96,107.30 697.90,107.30 703.84,107.30 709.78,107.30 715.72,107.30 721.66,107.30 727.60,107.30 733.54,107.30 739.48,107.30 745.42,107.30 751.36,107.30 757.30,107.30 763.24,107.30 769.18,107.30 775.12,107.30 781.06,107.30 787.00,155.70 792.94,155.70 798.88,155.70 804.82,155.70 810.76,155.70 816.70,155.70 822.64,155.70 828.58,155.70 834.52,155.70 840.46,155.70 846.40,155.70 852.34,155.70 858.28,155.70 864.22,107.30 870.16,107.30 876.10,107.30 882.04,107.30 887.98,107.30 893.92,107.30 899.86,107.30 905.80,107.30 911.74,107.30 917.68,107.30 923.62,107.30 929.56,107.30 935.50,107.30 941.44,107.30 947.38,155.70 953.32,155.70 959.26,155.70 965.21,155.70 971.15,155.70 977.09,155.70 983.03,155.70 988.97,155.70 994.91,155.70 1000.85,155.70 1006.79,155.70 1012.73,155.70 1018.67,155.70 1024.61,155.70 1030.55,155.70 1036.49,107.30 1042.43,107.30 1048.37,107.30 1054.31,107.30 1060.25,107.30" fill="none" stroke="#9333ea" stroke-width="2"/>
<line x1="990" y1="102" x2="1020" y2="102" stroke="#9333ea" stroke-width="3"/>
<text x="1028" y="107" font-family="sans-serif" font-size="13">W switch</text>
<text x="578.5" y="600" text-anchor="middle" font-family="sans-serif" font-size="16">time [ms]</text>
<text x="25" y="313.0" transform="rotate(-90 25 313.0)" text-anchor="middle" font-family="sans-serif" font-size="16">normalized value / shifted switch state</text>
</svg>
