<?xml version="1.0" encoding="UTF-8"?><svg xmlns="http://www.w3.org/2000/svg" viewBox="1330.0 768.0 218.8 224.4" data-region="south-asia" data-projection="Web Mercator" data-source="Natural Earth 1:50m admin-0 countries"><path data-code="BD" class="world-country" d="M1494.7,874.1L1494.8,873.5L1494.7,873.0L1494.3,871.6L1494.0,870.9L1494.0,870.6L1494.0,870.5L1493.9,869.6L1493.7,869.0L1493.6,868.4L1494.0,867.5L1493.9,867.4L1493.4,867.3L1492.9,867.1L1492.8,866.9L1493.0,866.0L1492.8,865.7L1492.4,865.3L1492.3,865.2L1492.2,865.0L1492.0,864.6L1492.3,863.6L1492.8,862.6L1492.9,862.2L1492.9,861.5L1493.0,861.2L1492.9,860.9L1492.5,860.6L1491.7,860.5L1491.1,860.2L1490.8,859.8L1490.5,859.7L1490.1,859.8L1489.7,859.6L1489.3,859.2L1489.0,858.8L1489.1,858.5L1489.1,858.2L1489.7,857.0L1489.9,857.0L1490.4,857.2L1490.6,857.2L1491.0,856.7L1491.4,855.3L1492.1,855.3L1492.7,855.4L1493.0,855.4L1493.4,855.4L1493.8,855.3L1494.1,855.1L1494.2,854.9L1494.1,854.7L1493.6,854.4L1493.4,854.2L1493.3,853.7L1493.2,853.5L1492.2,853.4L1491.7,853.2L1491.4,853.0L1490.9,852.2L1490.3,851.6L1489.7,851.5L1489.5,851.3L1489.4,851.0L1489.4,850.6L1489.6,850.2L1489.7,849.8L1490.2,849.2L1490.7,848.7L1491.0,848.4L1491.3,848.0L1491.4,847.8L1491.3,847.6L1491.0,847.4L1490.8,847.3L1490.8,847.2L1490.9,846.8L1491.2,846.8L1491.8,847.1L1492.3,847.7L1492.7,848.1L1492.7,848.5L1492.9,848.6L1493.1,848.6L1493.5,848.8L1493.9,848.7L1494.1,848.8L1494.3,848.8L1494.3,848.6L1494.2,848.2L1494.0,848.0L1494.2,847.8L1494.4,847.7L1494.5,847.8L1494.8,848.0L1495.0,848.4L1495.0,849.1L1495.5,849.7L1496.1,850.1L1496.5,850.3L1497.0,850.4L1497.5,850.3L1497.7,849.9L1497.6,849.5L1497.7,849.2L1497.9,849.0L1498.2,849.0L1498.4,849.3L1499.0,850.7L1498.9,851.3L1499.0,853.0L1498.9,854.2L1498.9,854.4L1499.0,854.6L1499.1,854.7L1499.3,854.7L1500.0,854.9L1500.7,855.1L1501.4,855.3L1502.4,855.5L1503.1,855.5L1503.4,855.5L1504.1,855.5L1505.8,855.4L1507.2,855.4L1507.8,855.6L1508.2,855.6L1509.8,855.5L1511.4,855.4L1512.2,855.8L1513.2,856.4L1513.7,856.8L1513.8,857.1L1513.8,857.3L1513.6,857.4L1513.2,857.4L1512.5,857.1L1512.4,857.2L1512.4,857.8L1512.4,857.9L1512.2,858.4L1511.8,859.6L1511.7,860.1L1511.6,860.2L1511.5,860.3L1511.1,860.3L1510.8,860.4L1510.7,860.6L1510.6,861.0L1510.4,861.4L1510.3,861.5L1509.8,861.3L1509.6,861.3L1509.3,861.4L1509.0,861.7L1508.7,861.9L1508.5,862.0L1507.7,862.0L1507.6,862.0L1507.5,862.2L1507.4,862.5L1506.8,863.1L1506.6,864.0L1506.4,864.6L1506.5,865.1L1507.0,866.4L1507.3,868.0L1507.4,868.2L1507.6,868.2L1507.6,868.2L1507.6,867.9L1507.6,867.4L1507.8,867.4L1508.0,867.4L1508.2,867.8L1508.4,868.4L1508.6,868.7L1509.0,868.8L1509.4,868.6L1509.7,868.3L1509.9,868.0L1509.8,867.4L1509.7,866.9L1509.9,866.5L1510.7,865.8L1510.8,865.6L1510.7,865.0L1510.7,864.5L1511.0,864.5L1511.4,864.5L1511.8,864.3L1512.0,864.3L1512.2,864.6L1512.5,864.5L1512.7,865.7L1513.0,866.7L1513.0,867.2L1513.0,868.2L1513.1,869.1L1513.3,869.3L1513.5,869.7L1513.7,870.2L1513.8,870.5L1513.9,871.5L1514.1,872.2L1514.2,874.4L1514.3,874.8L1514.3,875.0L1514.4,877.0L1514.4,877.8L1514.6,878.5L1514.6,878.8L1514.4,879.0L1514.3,879.1L1514.1,878.7L1513.7,878.5L1513.2,878.2L1512.9,878.0L1512.7,878.1L1512.3,878.5L1512.1,878.9L1512.2,879.4L1512.3,880.0L1512.6,880.3L1512.6,880.6L1512.7,881.0L1512.8,881.4L1512.9,881.9L1512.8,881.9L1512.5,881.3L1512.2,880.7L1511.4,879.6L1511.2,877.6L1511.2,876.5L1510.6,875.4L1510.3,873.7L1510.1,873.3L1510.3,872.8L1510.4,872.6L1510.3,872.6L1510.0,872.9L1509.6,872.2L1509.4,871.6L1508.5,870.4L1508.2,869.9L1508.2,869.3L1507.8,869.9L1507.3,870.2L1506.8,870.8L1506.4,871.0L1505.3,871.1L1504.6,870.3L1503.6,868.5L1503.5,868.1L1503.6,867.0L1503.4,866.0L1503.4,865.4L1503.4,865.1L1503.2,865.1L1503.1,865.4L1503.2,865.8L1503.1,866.1L1502.3,866.0L1501.5,865.9L1502.2,866.4L1502.9,866.6L1503.3,867.0L1503.3,867.4L1503.3,867.8L1502.9,868.1L1502.6,868.3L1502.7,868.7L1503.1,869.2L1502.6,869.4L1502.4,869.7L1502.4,870.1L1502.7,870.5L1502.8,870.8L1502.7,871.1L1503.0,871.4L1503.3,872.0L1503.4,872.5L1503.3,873.1L1503.1,873.4L1502.7,873.6L1502.0,874.4L1501.6,875.3L1501.3,875.7L1500.9,875.8L1500.7,875.6L1500.4,875.3L1500.4,874.9L1500.5,874.6L1501.2,873.7L1500.8,873.8L1500.4,874.1L1499.7,874.5L1499.5,874.0L1499.4,873.4L1499.4,872.8L1499.9,871.9L1499.3,872.3L1499.2,872.9L1499.3,873.6L1499.2,874.1L1499.0,874.8L1498.6,875.1L1498.2,875.4L1497.9,875.8L1497.6,876.1L1497.6,875.5L1497.5,874.8L1497.1,873.0L1497.1,873.4L1497.2,874.5L1497.2,875.2L1497.0,875.7L1496.4,876.3L1496.0,876.4L1495.7,876.3L1495.4,876.0L1495.0,875.4L1494.9,874.6L1494.7,874.1ZM1506.4,873.6L1505.8,874.0L1506.0,871.5L1506.4,872.5L1506.5,873.0L1506.4,873.6ZM1508.6,872.4L1508.4,872.5L1508.1,872.4L1507.8,871.8L1508.0,871.1L1508.1,871.0L1508.2,871.2L1508.5,871.7L1508.6,872.1L1508.6,872.4ZM1504.3,874.1L1503.4,874.3L1502.9,874.3L1503.8,872.7L1503.7,872.0L1503.6,871.4L1503.1,870.9L1503.1,870.6L1502.9,870.2L1502.8,869.6L1503.3,869.5L1503.7,869.8L1503.8,869.9L1503.9,870.4L1504.1,870.8L1504.8,871.7L1504.8,872.3L1504.6,873.7L1504.3,874.1ZM1510.4,875.7L1510.2,876.2L1510.1,875.8L1510.2,875.3L1510.3,875.1L1510.3,875.1L1510.5,875.4L1510.4,875.7ZM1510.8,877.6L1510.5,877.6L1510.3,877.5L1510.4,877.2L1510.3,876.4L1510.6,876.3L1510.7,876.3L1510.8,876.6L1510.9,877.0L1510.8,877.6ZM1503.6,868.9L1503.7,869.1L1503.4,869.0L1503.1,868.8L1503.0,868.6L1503.2,868.4L1503.6,868.9Z" fill-rule="evenodd"/><path data-code="BT" class="world-country" d="M1509.1,839.4L1509.0,839.5L1508.9,839.9L1508.8,840.3L1508.9,840.6L1509.2,841.0L1509.7,841.4L1510.3,841.4L1510.8,841.3L1511.1,841.3L1511.4,841.8L1511.6,842.3L1511.3,842.8L1511.1,843.2L1511.1,843.5L1511.1,843.6L1511.3,843.9L1511.5,844.3L1511.5,844.6L1511.4,844.9L1511.1,845.0L1510.8,845.0L1510.5,845.0L1510.2,845.0L1509.7,845.2L1509.3,845.4L1508.4,845.3L1508.1,844.9L1507.9,844.9L1507.1,845.4L1506.3,845.3L1504.8,845.5L1504.1,845.5L1503.4,845.5L1503.1,845.4L1502.5,845.0L1501.9,844.8L1501.3,845.0L1501.1,845.1L1500.7,845.6L1499.7,845.8L1498.7,846.0L1498.4,845.9L1497.8,845.9L1497.8,845.7L1497.8,845.6L1497.7,845.5L1497.5,845.4L1497.1,845.3L1496.6,845.2L1496.3,845.1L1495.3,845.3L1494.7,845.0L1494.0,844.5L1493.7,844.4L1493.5,843.7L1493.4,843.5L1493.1,843.3L1493.0,843.0L1493.1,842.8L1493.8,842.3L1493.8,842.1L1494.2,841.2L1494.6,840.9L1495.0,840.4L1495.3,839.7L1496.0,838.9L1496.6,838.1L1497.1,837.5L1497.4,837.2L1498.1,836.9L1498.6,836.7L1499.0,836.2L1499.4,836.0L1499.9,835.9L1500.6,836.0L1501.2,836.1L1501.9,836.3L1502.0,836.5L1502.0,836.8L1501.9,837.1L1501.9,837.3L1502.0,837.4L1502.7,837.4L1503.5,837.4L1504.0,837.4L1505.0,837.7L1505.3,837.9L1505.7,838.0L1506.0,838.0L1506.4,837.7L1506.8,837.4L1507.1,837.4L1507.3,837.5L1507.6,837.7L1508.3,838.0L1508.9,838.2L1509.1,838.3L1509.1,839.1L1509.1,839.4Z" fill-rule="evenodd"/><path data-code="IN" class="world-country" d="M1378.7,863.5L1379.1,863.2L1379.3,863.0L1379.9,862.9L1380.5,862.8L1381.0,862.8L1381.8,862.8L1381.8,861.0L1381.9,860.8L1382.0,860.7L1382.1,860.7L1382.2,860.7L1382.4,861.0L1382.6,861.0L1382.8,860.8L1383.2,860.9L1383.6,860.8L1384.0,861.0L1384.6,861.0L1385.8,860.9L1386.4,860.9L1386.9,861.2L1387.3,861.5L1387.8,861.6L1388.5,861.5L1389.0,861.4L1389.3,861.1L1389.4,860.8L1390.5,860.4L1391.6,860.1L1391.9,860.0L1392.0,860.2L1392.0,860.6L1392.1,860.9L1392.6,861.1L1392.9,861.1L1393.2,861.1L1393.4,861.0L1393.8,860.5L1394.0,860.4L1394.3,860.4L1394.7,860.2L1394.7,860.0L1394.5,859.9L1394.3,859.6L1394.3,859.4L1394.3,859.1L1394.3,858.8L1394.5,858.6L1394.7,858.4L1394.6,858.0L1394.2,857.1L1393.8,856.1L1393.3,855.2L1392.8,854.4L1392.5,853.9L1392.5,852.6L1392.5,852.4L1392.3,852.2L1392.1,852.1L1391.7,852.3L1391.4,852.3L1390.7,852.3L1390.4,852.1L1389.4,850.9L1389.3,850.4L1389.3,849.9L1389.6,849.0L1389.7,848.2L1389.8,847.4L1389.7,847.2L1389.5,846.9L1389.2,846.7L1388.4,846.7L1387.4,846.4L1386.7,846.0L1386.1,845.7L1386.0,845.5L1385.9,845.3L1386.1,844.4L1386.3,843.4L1386.5,843.0L1386.8,842.7L1387.0,842.5L1387.4,842.2L1388.3,841.2L1389.2,839.8L1389.7,838.8L1390.0,838.5L1390.2,838.3L1390.7,838.0L1391.1,837.7L1391.6,837.7L1392.1,838.0L1392.4,838.2L1392.5,838.9L1392.7,839.3L1393.0,839.6L1393.3,839.7L1393.7,839.6L1395.5,838.9L1396.1,838.8L1397.5,838.7L1398.4,838.4L1399.3,838.1L1399.4,837.6L1399.7,836.7L1400.7,835.7L1401.0,835.2L1401.3,834.3L1401.6,833.5L1401.9,833.1L1403.5,832.2L1405.0,831.4L1405.3,831.0L1406.3,829.2L1406.8,828.0L1407.0,827.6L1407.3,826.6L1407.7,825.6L1408.2,825.3L1409.2,824.9L1410.1,824.6L1410.5,824.1L1410.7,823.7L1410.7,823.3L1410.5,822.9L1410.5,822.6L1410.6,822.4L1411.2,821.8L1412.3,820.2L1413.0,819.4L1413.2,819.4L1413.9,819.0L1414.6,818.5L1414.6,818.3L1414.5,818.0L1414.1,817.8L1414.0,817.5L1414.1,817.0L1414.4,815.7L1414.3,815.3L1413.9,814.1L1414.0,813.7L1414.2,813.4L1414.6,812.9L1415.2,812.5L1417.1,811.6L1417.4,811.5L1418.1,811.3L1418.5,810.8L1418.5,810.4L1418.3,810.1L1418.0,809.7L1417.2,809.4L1416.6,809.2L1415.5,809.2L1414.9,808.9L1414.8,808.8L1414.7,808.2L1414.8,807.2L1414.6,807.1L1414.4,807.2L1413.8,807.1L1413.1,807.1L1412.8,806.9L1412.9,806.5L1412.9,806.1L1412.8,805.7L1412.7,805.6L1412.3,805.5L1411.8,805.1L1411.4,804.6L1411.1,804.3L1411.1,804.1L1411.1,804.0L1411.4,803.6L1411.8,803.0L1411.9,802.6L1411.9,802.2L1411.8,802.0L1411.5,801.7L1411.1,801.4L1411.0,801.2L1411.0,800.8L1411.1,800.4L1411.5,800.0L1412.3,799.7L1412.5,799.3L1412.5,799.0L1412.3,798.9L1411.7,798.9L1410.8,798.8L1410.7,798.6L1410.6,798.4L1410.6,798.2L1410.8,798.0L1411.0,797.7L1411.0,797.3L1410.7,797.0L1410.1,796.8L1410.0,796.4L1410.1,796.1L1410.3,795.7L1410.5,795.4L1410.9,794.5L1411.4,794.4L1412.1,794.1L1412.8,793.8L1413.9,794.0L1414.4,794.1L1415.5,794.4L1416.4,794.6L1417.3,794.7L1417.7,794.6L1418.1,794.9L1419.2,795.3L1420.0,795.6L1420.6,795.6L1421.5,795.2L1421.9,794.8L1422.5,794.4L1423.2,794.4L1424.8,793.8L1425.1,794.0L1425.5,794.0L1426.1,793.6L1426.4,793.2L1426.4,793.0L1426.6,792.9L1427.2,792.6L1427.8,792.2L1427.9,791.8L1428.0,791.4L1428.7,791.0L1429.4,790.6L1430.1,790.1L1431.0,789.6L1431.6,789.2L1432.2,788.8L1432.2,788.8L1432.3,788.9L1432.5,789.1L1432.7,789.1L1433.0,789.0L1433.4,788.9L1433.6,788.9L1433.6,789.1L1433.4,790.1L1433.4,790.5L1433.8,791.3L1434.2,792.6L1434.6,793.8L1434.9,794.5L1435.1,794.9L1436.2,795.2L1437.1,795.5L1437.6,795.9L1438.1,796.3L1438.5,796.6L1438.7,796.9L1438.8,797.2L1438.7,797.4L1438.5,797.7L1437.5,798.3L1437.4,798.6L1437.4,798.8L1437.6,799.7L1437.7,800.2L1437.7,801.3L1437.8,802.3L1438.1,802.7L1438.4,803.0L1438.6,803.3L1439.0,803.7L1439.3,803.9L1439.5,804.1L1439.6,804.5L1439.6,804.9L1439.5,805.3L1439.5,805.4L1439.7,805.6L1440.0,806.0L1440.1,806.5L1440.0,806.9L1440.2,807.2L1440.2,807.6L1440.1,808.5L1440.1,808.9L1440.1,808.9L1439.8,808.9L1439.6,809.1L1439.3,809.6L1438.9,809.8L1438.4,809.8L1438.0,809.5L1437.6,809.1L1437.5,808.9L1437.4,808.5L1437.2,808.3L1436.8,808.4L1436.3,808.4L1435.6,808.5L1435.5,808.6L1435.5,808.8L1435.7,809.1L1435.8,809.6L1435.9,810.2L1436.0,810.6L1436.1,810.8L1437.1,812.0L1437.4,812.3L1437.4,812.5L1437.3,812.9L1437.2,813.5L1437.2,813.9L1437.5,814.4L1437.8,814.7L1437.5,815.1L1437.4,815.6L1437.5,815.9L1437.5,816.6L1437.5,816.7L1437.7,816.8L1438.0,816.7L1438.3,816.6L1438.6,816.5L1438.7,816.6L1439.0,816.0L1439.1,815.9L1439.5,816.1L1440.2,817.1L1440.8,818.0L1440.9,818.2L1441.0,818.3L1441.6,818.7L1442.0,819.0L1442.6,818.9L1443.3,818.9L1443.7,819.2L1444.0,819.4L1444.0,819.4L1444.0,819.4L1444.9,820.1L1445.3,820.1L1445.5,820.3L1445.6,820.7L1445.5,821.3L1445.5,821.5L1445.9,821.5L1446.7,821.9L1447.5,822.2L1447.8,822.3L1448.2,822.5L1448.6,822.8L1449.3,823.3L1449.9,823.6L1450.1,824.1L1449.8,824.0L1449.5,824.0L1449.2,824.3L1449.0,824.4L1448.2,825.2L1447.8,825.4L1447.5,825.8L1446.7,826.9L1446.2,827.9L1445.9,828.8L1445.9,829.5L1445.7,830.3L1445.4,830.7L1445.2,830.9L1444.9,831.6L1444.7,832.4L1444.8,832.6L1445.3,833.0L1445.7,833.3L1446.2,833.6L1446.8,834.0L1447.1,834.0L1447.2,833.8L1447.3,833.7L1447.7,833.8L1448.2,834.1L1448.5,834.4L1448.6,834.5L1449.4,834.9L1450.1,835.3L1450.9,835.7L1451.1,836.0L1451.3,836.3L1451.7,836.7L1452.7,837.5L1453.5,838.0L1454.2,838.4L1454.7,838.7L1455.0,838.6L1455.3,838.5L1455.5,838.4L1455.8,838.5L1456.2,838.7L1457.2,839.4L1458.1,839.9L1459.1,839.8L1459.3,839.9L1459.5,840.4L1459.6,840.9L1460.7,841.2L1461.5,841.3L1462.3,841.6L1462.7,841.8L1463.2,841.6L1463.2,841.3L1463.6,841.2L1464.2,841.3L1465.3,841.6L1465.7,841.8L1466.1,841.4L1466.8,841.2L1467.2,841.0L1467.9,841.4L1469.3,841.9L1470.1,842.3L1470.2,842.6L1470.3,842.8L1470.3,843.5L1470.5,843.9L1471.9,844.6L1472.3,844.9L1472.7,845.0L1472.9,845.0L1473.1,845.1L1473.2,845.5L1473.3,845.6L1473.6,845.7L1473.8,845.7L1474.8,845.4L1475.4,845.1L1475.8,845.2L1476.1,845.5L1476.2,845.9L1476.3,846.4L1476.6,846.6L1477.0,846.6L1477.8,846.3L1478.5,846.5L1479.1,846.6L1479.8,846.8L1480.1,846.9L1480.8,847.3L1481.7,847.6L1482.0,847.6L1483.4,846.9L1483.5,847.0L1483.8,847.6L1484.3,847.9L1484.9,848.1L1485.6,847.7L1486.2,847.8L1486.9,847.9L1487.5,847.7L1488.1,847.6L1488.9,848.0L1489.0,847.9L1489.2,847.7L1489.5,846.7L1489.8,845.8L1489.8,845.3L1489.5,844.6L1488.9,843.6L1488.8,843.3L1489.0,841.6L1489.3,840.6L1489.5,840.1L1489.7,839.4L1489.7,839.1L1489.7,838.8L1489.5,838.7L1489.4,838.5L1489.5,838.3L1489.7,838.2L1490.4,838.1L1491.3,837.8L1491.6,837.6L1491.8,837.5L1492.1,837.3L1492.3,837.3L1493.1,837.6L1493.4,837.8L1493.5,838.4L1493.6,838.7L1493.5,839.3L1493.1,840.9L1493.1,841.4L1493.5,841.9L1493.8,842.1L1493.8,842.3L1493.1,842.8L1493.0,843.0L1493.1,843.3L1493.4,843.5L1493.5,843.7L1493.7,844.4L1494.0,844.5L1494.7,845.0L1495.3,845.3L1496.3,845.1L1496.6,845.2L1497.1,845.3L1497.5,845.4L1497.7,845.5L1497.8,845.6L1497.8,845.7L1497.8,845.9L1498.4,845.9L1498.7,846.0L1499.7,845.8L1500.7,845.6L1501.1,845.1L1501.3,845.0L1501.9,844.8L1502.5,845.0L1503.1,845.4L1503.4,845.5L1504.1,845.5L1504.8,845.5L1506.3,845.3L1507.1,845.4L1507.9,844.9L1508.1,844.9L1508.4,845.3L1509.3,845.4L1509.7,845.2L1510.2,845.0L1510.5,845.0L1510.8,845.0L1511.1,845.0L1511.4,844.9L1511.5,844.6L1511.5,844.3L1511.3,843.9L1511.1,843.6L1511.1,843.5L1511.1,843.2L1511.3,842.8L1511.6,842.3L1511.4,841.8L1511.1,841.3L1510.8,841.3L1510.3,841.4L1509.7,841.4L1509.2,841.0L1508.9,840.6L1508.8,840.3L1508.9,839.9L1509.0,839.5L1509.1,839.4L1509.5,839.4L1510.1,839.4L1510.6,839.6L1511.0,839.5L1511.7,839.1L1512.0,839.0L1512.3,838.9L1512.5,838.9L1512.6,838.9L1513.0,839.0L1513.4,839.0L1513.8,838.8L1514.1,838.6L1514.8,838.2L1514.9,837.9L1514.9,837.7L1514.8,837.5L1514.7,837.5L1514.7,837.3L1515.0,836.9L1516.0,836.4L1516.9,835.8L1517.3,835.3L1517.5,834.7L1517.8,834.1L1518.1,833.9L1518.7,833.7L1520.4,833.5L1520.9,833.2L1521.7,832.8L1522.1,832.4L1522.3,832.1L1522.3,831.8L1522.8,831.7L1523.3,831.2L1523.9,830.6L1524.8,830.2L1525.7,829.5L1526.0,829.6L1526.3,829.9L1526.5,830.3L1526.5,830.4L1527.6,830.6L1527.8,830.6L1528.6,830.9L1529.3,831.2L1529.7,831.3L1529.9,831.3L1530.1,831.2L1530.3,830.9L1530.5,830.7L1530.6,830.6L1530.6,830.2L1531.7,829.5L1532.7,829.0L1533.5,828.7L1533.8,828.8L1534.0,829.1L1534.4,829.8L1534.6,830.0L1535.2,829.9L1535.3,829.9L1535.2,830.2L1534.8,830.5L1534.3,830.8L1534.0,831.0L1534.1,831.8L1534.1,832.0L1534.2,832.1L1535.3,831.4L1535.8,831.2L1535.9,831.4L1536.0,831.8L1536.4,832.6L1536.6,833.0L1535.5,834.0L1535.2,834.5L1535.2,834.7L1535.1,834.9L1534.9,835.2L1534.9,835.3L1535.1,835.4L1535.4,835.5L1535.5,835.5L1535.7,835.3L1536.7,835.0L1537.0,835.0L1537.6,835.5L1538.0,835.6L1538.8,835.7L1539.3,835.5L1539.7,835.7L1540.5,836.4L1540.7,836.5L1540.6,836.9L1540.6,837.3L1540.8,837.7L1540.8,838.0L1540.8,838.2L1540.6,838.4L1540.1,838.5L1539.8,838.9L1539.2,839.4L1538.7,839.8L1538.3,840.1L1538.2,840.5L1538.2,840.9L1538.3,841.4L1539.5,843.1L1539.5,843.4L1539.1,843.5L1538.6,843.3L1538.2,843.0L1537.8,842.3L1537.4,842.0L1537.0,842.0L1534.9,842.4L1534.4,842.5L1533.7,842.8L1533.2,843.3L1532.8,843.8L1532.4,844.0L1531.9,844.4L1530.4,845.6L1529.5,846.2L1528.9,846.4L1528.5,846.6L1528.3,847.1L1528.1,847.4L1528.1,848.2L1528.2,849.1L1528.4,849.8L1528.5,849.9L1528.5,850.1L1528.3,850.4L1528.0,850.7L1527.9,850.9L1527.7,851.7L1527.5,852.2L1527.0,852.8L1526.6,853.3L1525.9,853.7L1525.7,854.0L1525.4,854.5L1525.3,855.0L1525.3,855.2L1525.4,855.3L1525.6,855.5L1526.0,855.6L1526.1,855.9L1526.2,856.2L1525.9,856.9L1525.5,857.9L1525.0,858.7L1524.4,859.5L1524.3,859.7L1523.9,860.6L1523.4,861.9L1523.2,862.8L1522.9,863.3L1522.6,863.4L1522.3,863.2L1521.4,862.9L1520.9,862.7L1520.5,862.5L1520.2,862.6L1519.8,862.7L1519.4,862.8L1519.2,862.7L1518.6,862.1L1518.5,862.2L1518.4,862.5L1518.7,864.0L1519.0,864.5L1518.9,865.5L1518.8,866.6L1518.7,867.8L1518.6,868.1L1518.4,868.5L1518.1,868.6L1517.8,868.4L1517.6,868.5L1517.5,868.7L1517.6,869.2L1517.3,869.8L1517.1,870.3L1517.2,870.9L1517.3,871.4L1517.6,872.5L1517.6,872.9L1517.5,873.3L1517.3,873.4L1517.1,873.4L1516.9,873.6L1516.8,873.8L1516.5,874.6L1516.2,874.7L1515.9,874.6L1515.4,874.0L1515.1,873.9L1514.9,873.9L1514.9,874.0L1514.7,874.4L1514.6,874.6L1514.3,874.8L1514.2,874.4L1514.1,872.2L1513.9,871.5L1513.8,870.5L1513.7,870.2L1513.5,869.7L1513.3,869.3L1513.1,869.1L1513.0,868.2L1513.0,867.2L1513.0,866.7L1512.7,865.7L1512.5,864.5L1512.2,864.6L1512.0,864.3L1511.8,864.3L1511.4,864.5L1511.0,864.5L1510.7,864.5L1510.7,865.0L1510.8,865.6L1510.7,865.8L1509.9,866.5L1509.7,866.9L1509.8,867.4L1509.9,868.0L1509.7,868.3L1509.4,868.6L1509.0,868.8L1508.6,868.7L1508.4,868.4L1508.2,867.8L1508.0,867.4L1507.8,867.4L1507.6,867.4L1507.6,867.9L1507.6,868.2L1507.6,868.2L1507.4,868.2L1507.3,868.0L1507.0,866.4L1506.5,865.1L1506.4,864.6L1506.6,864.0L1506.8,863.1L1507.4,862.5L1507.5,862.2L1507.6,862.0L1507.7,862.0L1508.5,862.0L1508.7,861.9L1509.0,861.7L1509.3,861.4L1509.6,861.3L1509.8,861.3L1510.3,861.5L1510.4,861.4L1510.6,861.0L1510.7,860.6L1510.8,860.4L1511.1,860.3L1511.5,860.3L1511.6,860.2L1511.7,860.1L1511.8,859.6L1512.2,858.4L1512.4,857.9L1512.4,857.8L1512.4,857.2L1512.5,857.1L1513.2,857.4L1513.6,857.4L1513.8,857.3L1513.8,857.1L1513.7,856.8L1513.2,856.4L1512.2,855.8L1511.4,855.4L1509.8,855.5L1508.2,855.6L1507.8,855.6L1507.2,855.4L1505.8,855.4L1504.1,855.5L1503.4,855.5L1503.1,855.5L1502.4,855.5L1501.4,855.3L1500.7,855.1L1500.0,854.9L1499.3,854.7L1499.1,854.7L1499.0,854.6L1498.9,854.4L1498.9,854.2L1499.0,853.0L1498.9,851.3L1499.0,850.7L1498.4,849.3L1498.2,849.0L1497.9,849.0L1497.7,849.2L1497.6,849.5L1497.7,849.9L1497.5,850.3L1497.0,850.4L1496.5,850.3L1496.1,850.1L1495.5,849.7L1495.0,849.1L1495.0,848.4L1494.8,848.0L1494.5,847.8L1494.4,847.7L1494.2,847.8L1494.0,848.0L1494.2,848.2L1494.3,848.6L1494.3,848.8L1494.1,848.8L1493.9,848.7L1493.5,848.8L1493.1,848.6L1492.9,848.6L1492.7,848.5L1492.7,848.1L1492.3,847.7L1491.8,847.1L1491.2,846.8L1490.9,846.8L1490.8,847.2L1490.8,847.3L1491.0,847.4L1491.3,847.6L1491.4,847.8L1491.3,848.0L1491.0,848.4L1490.7,848.7L1490.2,849.2L1489.7,849.8L1489.6,850.2L1489.4,850.6L1489.4,851.0L1489.5,851.3L1489.7,851.5L1490.3,851.6L1490.9,852.2L1491.4,853.0L1491.7,853.2L1492.2,853.4L1493.2,853.5L1493.3,853.7L1493.4,854.2L1493.6,854.4L1494.1,854.7L1494.2,854.9L1494.1,855.1L1493.8,855.3L1493.4,855.4L1493.0,855.4L1492.7,855.4L1492.1,855.3L1491.4,855.3L1491.0,856.7L1490.6,857.2L1490.4,857.2L1489.9,857.0L1489.7,857.0L1489.1,858.2L1489.1,858.5L1489.0,858.8L1489.3,859.2L1489.7,859.6L1490.1,859.8L1490.5,859.7L1490.8,859.8L1491.1,860.2L1491.7,860.5L1492.5,860.6L1492.9,860.9L1493.0,861.2L1492.9,861.5L1492.9,862.2L1492.8,862.6L1492.3,863.6L1492.0,864.6L1492.2,865.0L1492.3,865.2L1492.4,865.3L1492.8,865.7L1493.0,866.0L1492.8,866.9L1492.9,867.1L1493.4,867.3L1493.9,867.4L1494.0,867.5L1493.6,868.4L1493.7,869.0L1493.9,869.6L1494.0,870.5L1494.0,870.6L1494.0,870.9L1494.3,871.6L1494.7,873.0L1494.8,873.5L1494.7,874.1L1494.6,875.0L1494.2,875.0L1494.6,875.7L1494.7,876.1L1494.7,876.7L1494.3,876.8L1493.9,876.7L1493.7,876.2L1493.5,876.7L1493.0,877.1L1492.8,876.9L1492.7,876.7L1492.7,876.3L1493.0,874.6L1492.9,874.4L1492.8,874.3L1492.6,874.3L1492.5,873.9L1492.0,875.7L1492.2,876.4L1492.1,876.7L1491.4,877.0L1490.6,876.3L1490.5,876.1L1490.4,876.5L1490.3,876.9L1489.6,876.8L1489.2,876.5L1489.4,875.9L1489.9,874.5L1490.0,873.8L1489.4,873.4L1488.9,873.1L1488.6,872.4L1488.7,873.1L1488.9,873.4L1489.4,873.6L1489.8,873.9L1489.5,874.4L1489.2,874.7L1488.6,875.7L1487.9,876.3L1487.1,876.7L1484.4,877.4L1483.9,877.6L1483.1,878.5L1482.6,879.2L1482.5,880.0L1482.8,880.8L1483.0,882.1L1483.2,882.4L1482.9,882.9L1482.4,883.4L1482.0,884.1L1482.1,884.5L1481.9,884.7L1480.5,885.5L1480.3,886.0L1479.9,886.5L1479.4,886.2L1479.1,886.2L1479.5,886.6L1479.5,886.9L1479.3,887.0L1479.0,887.2L1477.0,887.8L1475.4,888.4L1475.0,888.4L1475.1,888.2L1475.3,888.0L1475.3,887.3L1475.0,887.2L1474.8,887.2L1473.6,888.0L1473.1,888.8L1473.2,889.0L1473.5,888.9L1474.3,888.5L1474.6,888.6L1474.7,888.8L1473.5,889.5L1470.9,891.7L1470.8,892.2L1470.5,892.7L1470.1,893.1L1469.2,894.3L1467.7,896.0L1467.2,896.6L1464.7,897.9L1464.3,898.3L1463.3,899.6L1462.2,900.6L1461.0,901.5L1458.9,902.5L1457.6,903.6L1457.1,904.3L1457.1,904.5L1457.3,904.8L1457.5,905.2L1457.6,905.4L1457.4,905.8L1457.4,906.1L1457.0,906.7L1456.3,907.1L1454.2,908.0L1454.0,908.0L1452.2,907.8L1451.6,908.0L1451.3,908.4L1450.7,910.2L1450.2,910.6L1450.0,911.0L1449.9,911.3L1449.5,911.3L1449.2,911.2L1449.0,911.3L1448.8,910.7L1448.4,910.6L1448.0,910.5L1446.6,911.1L1446.1,911.6L1445.0,913.8L1444.7,915.3L1445.0,916.9L1445.4,918.1L1445.4,918.7L1445.4,919.4L1445.2,919.8L1445.1,920.2L1445.2,921.1L1445.7,922.2L1445.8,922.7L1445.8,923.2L1446.1,924.4L1445.9,924.2L1445.7,923.7L1445.3,923.1L1444.8,923.7L1445.1,924.1L1446.1,924.7L1446.3,925.1L1445.7,928.9L1445.2,930.3L1444.7,931.2L1444.3,931.5L1443.7,932.9L1443.2,934.6L1443.1,935.3L1443.3,936.0L1443.0,936.4L1442.7,936.7L1443.3,936.6L1443.5,937.0L1443.6,937.4L1443.6,939.8L1443.5,942.3L1443.1,942.4L1442.6,942.5L1442.2,942.4L1441.8,942.3L1441.1,942.4L1440.6,942.7L1440.3,943.2L1440.3,944.0L1438.9,945.9L1438.6,946.6L1438.4,947.2L1438.6,947.6L1439.0,947.9L1439.5,948.1L1440.4,948.2L1440.9,948.4L1441.2,948.7L1440.1,948.4L1438.8,948.3L1435.7,949.2L1434.9,949.8L1434.4,950.4L1434.1,951.7L1434.0,952.5L1433.7,953.3L1432.1,954.3L1431.0,954.7L1430.7,955.0L1429.5,954.6L1428.1,953.6L1427.6,953.1L1425.7,950.7L1425.3,950.3L1424.9,949.3L1424.8,948.9L1424.7,948.7L1424.6,948.6L1424.5,948.5L1424.0,947.2L1423.8,946.0L1423.6,944.6L1423.8,944.7L1424.1,945.1L1424.3,945.8L1424.3,946.8L1424.6,946.9L1424.8,946.8L1424.1,944.6L1423.6,944.1L1423.5,944.0L1423.3,943.7L1423.3,943.2L1423.3,943.0L1422.9,942.3L1422.8,941.9L1421.8,939.7L1421.4,938.2L1420.7,936.5L1420.3,935.9L1419.6,934.5L1419.0,933.9L1418.4,933.1L1417.9,932.7L1417.8,932.5L1416.4,929.6L1415.9,928.0L1415.6,927.3L1415.4,926.7L1414.9,924.3L1414.9,923.8L1414.8,923.3L1414.5,922.3L1413.9,921.2L1413.7,920.5L1413.7,920.2L1413.3,919.1L1413.2,918.6L1413.0,918.1L1412.7,917.7L1412.4,917.4L1411.6,916.3L1411.3,916.0L1410.8,915.3L1410.5,913.9L1410.0,913.4L1410.7,913.4L1410.3,912.9L1410.1,912.6L1409.8,912.4L1410.2,911.9L1409.6,911.9L1409.3,911.6L1408.9,910.7L1408.2,909.6L1408.1,909.1L1407.4,907.3L1406.9,903.0L1406.4,901.1L1406.4,900.5L1405.8,898.9L1405.5,897.7L1405.4,896.8L1405.2,896.2L1405.1,894.9L1404.9,894.6L1404.8,894.3L1405.0,893.8L1405.4,892.9L1405.6,892.3L1405.4,891.6L1405.0,892.4L1404.6,892.6L1404.5,892.0L1404.5,891.2L1404.4,891.0L1404.5,890.7L1405.5,890.8L1404.4,890.3L1404.2,890.0L1404.2,889.8L1404.4,889.4L1404.0,889.1L1403.9,888.0L1403.8,887.8L1403.7,887.6L1403.9,886.1L1404.9,883.2L1405.0,882.6L1404.9,881.6L1404.7,880.9L1404.6,880.1L1404.5,879.9L1404.2,879.9L1403.8,879.6L1403.5,878.4L1403.8,878.0L1404.1,877.8L1403.7,877.9L1403.4,877.9L1404.0,877.3L1404.5,876.9L1405.7,876.5L1406.2,876.2L1405.4,876.4L1404.7,876.5L1403.0,876.5L1403.3,875.4L1403.6,875.0L1403.9,874.8L1403.4,874.9L1402.9,874.8L1403.1,873.7L1403.5,873.5L1403.9,873.4L1404.5,873.3L1403.9,873.1L1403.3,873.0L1402.5,873.2L1401.8,873.0L1401.0,873.0L1401.3,873.2L1401.7,873.5L1401.5,874.1L1401.4,874.5L1400.9,874.7L1400.5,875.1L1400.4,875.5L1400.2,875.7L1400.6,875.9L1400.9,876.0L1401.2,876.3L1401.4,876.7L1401.4,877.5L1400.4,879.3L1400.1,879.7L1397.6,880.8L1396.6,881.4L1394.6,882.2L1393.8,882.3L1392.9,882.2L1391.6,881.6L1389.6,880.1L1389.1,879.6L1387.5,877.6L1386.3,876.6L1385.5,875.6L1384.4,874.7L1383.4,873.5L1383.2,872.9L1383.2,872.3L1383.6,872.0L1384.1,872.2L1384.4,872.6L1384.7,872.9L1384.9,872.9L1386.4,872.2L1387.0,872.2L1387.4,871.9L1387.9,871.9L1388.9,871.4L1389.4,871.3L1389.9,871.2L1390.7,869.8L1391.3,868.8L1391.7,868.6L1391.7,868.4L1391.6,868.1L1391.3,868.2L1391.1,868.5L1390.9,868.8L1390.8,869.0L1390.3,868.8L1390.0,868.9L1389.5,869.0L1388.1,869.5L1387.4,870.0L1387.0,870.1L1384.6,869.6L1382.3,868.3L1381.3,867.5L1380.7,866.4L1380.1,865.2L1380.3,864.8L1381.3,864.1L1382.1,863.5L1381.3,863.8L1380.5,864.1L1380.1,864.4L1379.7,864.9L1379.1,865.0L1378.8,864.2L1378.7,863.5ZM1521.6,962.0L1521.3,962.4L1520.6,961.0L1520.3,960.9L1520.3,960.3L1520.5,960.0L1521.2,959.7L1521.4,959.9L1521.8,961.2L1521.6,962.0ZM1520.7,959.0L1520.2,959.5L1520.0,959.2L1520.1,959.0L1520.3,958.9L1520.5,958.7L1520.7,959.0ZM1517.4,954.0L1517.6,954.2L1517.3,954.2L1517.0,953.9L1517.1,953.6L1517.2,953.4L1517.4,954.0ZM1519.1,956.1L1518.7,956.1L1518.6,955.9L1518.4,955.6L1518.5,955.4L1518.8,955.3L1519.1,955.7L1519.2,956.0L1519.1,956.1ZM1519.6,955.1L1519.4,955.3L1519.3,955.3L1519.3,955.1L1519.3,955.0L1519.2,954.8L1519.2,954.4L1519.4,954.1L1519.6,954.2L1519.5,954.5L1519.6,955.1ZM1515.5,949.0L1515.2,949.1L1515.1,948.9L1515.1,948.6L1515.2,948.5L1515.3,948.4L1515.5,948.4L1515.6,948.8L1515.5,949.0ZM1513.9,941.0L1513.7,941.2L1513.2,941.1L1513.2,940.5L1513.1,939.9L1513.2,939.7L1513.6,939.3L1513.9,939.1L1514.2,939.6L1514.3,940.2L1513.9,941.0ZM1515.0,936.4L1514.7,936.5L1514.4,936.3L1514.6,936.1L1514.7,935.6L1514.9,935.9L1514.9,936.2L1515.0,936.4ZM1515.1,935.5L1515.0,935.6L1514.8,935.5L1514.3,934.4L1514.2,933.8L1514.1,933.6L1514.3,933.2L1514.5,933.1L1514.6,932.8L1514.7,932.2L1514.9,931.7L1515.0,931.6L1515.4,931.6L1515.5,931.6L1515.4,931.1L1515.2,930.9L1515.1,930.8L1515.1,929.8L1515.2,929.3L1515.3,929.0L1515.2,928.4L1515.3,928.2L1515.6,927.8L1515.7,927.1L1515.6,926.9L1515.9,925.8L1515.9,925.1L1516.2,924.4L1516.8,924.0L1517.0,924.0L1517.0,924.7L1517.1,924.9L1516.8,925.2L1517.1,925.7L1517.0,925.9L1516.9,926.3L1516.7,926.6L1516.4,926.8L1516.2,927.3L1516.0,927.5L1516.5,928.0L1516.6,929.8L1516.3,930.3L1515.9,930.4L1516.0,931.5L1515.9,931.8L1515.5,932.4L1515.5,932.6L1515.3,932.9L1515.4,933.2L1515.5,933.3L1515.5,933.6L1515.4,934.2L1515.4,934.9L1515.1,935.5ZM1516.8,932.6L1517.0,933.4L1516.6,933.1L1516.4,932.8L1516.6,932.7L1516.8,932.6ZM1515.1,927.9L1514.9,928.3L1514.9,927.5L1515.0,927.4L1515.1,927.4L1515.2,927.4L1515.1,927.9ZM1404.3,937.4L1404.3,937.4L1404.3,937.3L1404.3,937.1L1404.4,937.0L1404.4,937.0L1404.4,937.1L1404.4,937.3L1404.3,937.4ZM1405.9,953.9L1405.9,954.0L1405.8,954.0L1405.7,954.0L1405.7,953.9L1405.7,953.9L1405.8,953.9L1405.9,953.9L1406.0,953.7L1406.0,953.6L1406.0,953.7L1406.0,953.8L1405.9,953.9Z" fill-rule="evenodd"/><path data-code="LK" class="world-country" d="M1444.3,946.2L1443.9,946.3L1443.7,945.9L1443.6,945.8L1443.7,945.7L1443.7,945.6L1443.8,945.6L1444.0,946.0L1444.3,946.2ZM1443.7,949.5L1443.9,949.9L1443.5,949.6L1443.1,949.4L1443.0,949.2L1443.7,949.4L1443.7,949.5ZM1444.3,945.2L1444.9,945.2L1445.4,945.2L1445.8,945.3L1446.5,946.2L1448.4,947.7L1449.4,949.3L1449.5,949.7L1449.6,950.0L1449.9,950.0L1450.1,950.2L1451.1,951.7L1451.2,952.0L1451.2,952.3L1451.3,952.6L1451.5,952.7L1451.9,952.8L1452.1,953.0L1452.3,954.2L1452.3,954.6L1452.4,954.7L1453.7,956.6L1453.8,956.9L1453.8,957.0L1453.8,957.2L1454.0,957.5L1454.4,958.4L1454.6,958.6L1454.9,959.4L1454.9,960.9L1454.8,961.6L1454.5,962.4L1454.3,963.2L1454.0,963.7L1453.5,964.2L1452.1,965.3L1451.7,965.5L1449.8,966.1L1448.5,966.7L1447.2,966.9L1445.9,966.6L1445.0,965.7L1444.5,964.6L1444.1,963.3L1443.7,962.0L1443.3,957.7L1443.1,956.6L1442.8,955.0L1442.8,954.4L1443.1,953.8L1443.1,955.1L1443.2,955.3L1443.4,955.1L1443.5,953.7L1443.6,953.1L1444.1,951.5L1444.1,951.2L1444.0,950.7L1444.0,950.4L1444.8,949.3L1445.0,948.6L1445.1,948.0L1445.1,947.2L1444.9,946.5L1445.5,946.8L1445.9,947.0L1446.2,947.2L1446.5,947.1L1446.8,947.1L1446.6,946.7L1445.9,946.4L1444.7,946.1L1444.3,945.9L1444.2,945.6L1444.3,945.3L1444.3,945.2Z" fill-rule="evenodd"/><path data-code="MV" class="world-country" d="M1407.9,982.0L1407.8,982.0L1407.7,982.0L1407.7,981.8L1407.8,981.7L1407.9,981.7L1408.0,981.8L1408.0,981.9L1407.9,982.0ZM1408.4,976.8L1408.3,976.9L1408.2,976.9L1408.2,976.8L1408.2,976.7L1408.3,976.6L1408.4,976.5L1408.4,976.4L1408.5,976.4L1408.5,976.5L1408.5,976.6L1408.4,976.7L1408.4,976.8Z" fill-rule="evenodd"/><path data-code="NP" class="world-country" d="M1489.5,838.7L1489.7,838.8L1489.7,839.1L1489.7,839.4L1489.5,840.1L1489.3,840.6L1489.0,841.6L1488.8,843.3L1488.9,843.6L1489.5,844.6L1489.8,845.3L1489.8,845.8L1489.5,846.7L1489.2,847.7L1489.0,847.9L1488.9,848.0L1488.1,847.6L1487.5,847.7L1486.9,847.9L1486.2,847.8L1485.6,847.7L1484.9,848.1L1484.3,847.9L1483.8,847.6L1483.5,847.0L1483.4,846.9L1482.0,847.6L1481.7,847.6L1480.8,847.3L1480.1,846.9L1479.8,846.8L1479.1,846.6L1478.5,846.5L1477.8,846.3L1477.0,846.6L1476.6,846.6L1476.3,846.4L1476.2,845.9L1476.1,845.5L1475.8,845.2L1475.4,845.1L1474.8,845.4L1473.8,845.7L1473.6,845.7L1473.3,845.6L1473.2,845.5L1473.1,845.1L1472.9,845.0L1472.7,845.0L1472.3,844.9L1471.9,844.6L1470.5,843.9L1470.3,843.5L1470.3,842.8L1470.2,842.6L1470.1,842.3L1469.3,841.9L1467.9,841.4L1467.2,841.0L1466.8,841.2L1466.1,841.4L1465.7,841.8L1465.3,841.6L1464.2,841.3L1463.6,841.2L1463.2,841.3L1463.2,841.6L1462.7,841.8L1462.3,841.6L1461.5,841.3L1460.7,841.2L1459.6,840.9L1459.5,840.4L1459.3,839.9L1459.1,839.8L1458.1,839.9L1457.2,839.4L1456.2,838.7L1455.8,838.5L1455.5,838.4L1455.3,838.5L1455.0,838.6L1454.7,838.7L1454.2,838.4L1453.5,838.0L1452.7,837.5L1451.7,836.7L1451.3,836.3L1451.1,836.0L1450.9,835.7L1450.1,835.3L1449.4,834.9L1448.6,834.5L1448.5,834.4L1448.2,834.1L1447.7,833.8L1447.3,833.7L1447.2,833.8L1447.1,834.0L1446.8,834.0L1446.2,833.6L1445.7,833.3L1445.3,833.0L1444.8,832.6L1444.7,832.4L1444.9,831.6L1445.2,830.9L1445.4,830.7L1445.7,830.3L1445.9,829.5L1445.9,828.8L1446.2,827.9L1446.7,826.9L1447.5,825.8L1447.8,825.4L1448.2,825.2L1449.0,824.4L1449.2,824.3L1449.5,824.0L1449.8,824.0L1450.1,824.1L1450.3,824.5L1450.6,824.9L1451.0,824.9L1451.4,824.6L1452.3,823.0L1453.6,822.7L1454.7,822.8L1455.8,823.1L1456.1,823.6L1456.3,824.1L1456.4,824.4L1456.8,824.7L1458.3,825.5L1459.1,826.2L1460.3,827.2L1461.2,827.6L1462.0,827.6L1462.4,828.0L1463.1,828.7L1463.6,829.6L1464.4,830.4L1464.8,830.3L1465.5,830.1L1466.3,829.8L1466.8,829.9L1467.2,830.1L1467.4,830.5L1467.6,831.3L1467.9,832.1L1468.4,832.4L1468.9,832.8L1469.3,833.1L1470.3,833.7L1470.4,833.9L1470.6,834.1L1470.9,834.2L1471.1,834.3L1471.4,834.4L1472.6,834.0L1472.9,834.1L1473.1,834.1L1473.1,834.2L1472.9,834.8L1472.7,835.5L1472.9,835.9L1473.4,836.0L1474.5,836.1L1476.0,836.1L1476.4,836.5L1476.9,837.0L1477.3,837.9L1477.5,838.3L1477.7,838.4L1478.1,838.3L1478.2,837.9L1478.2,837.3L1478.5,837.1L1478.7,837.3L1479.0,837.7L1479.6,838.1L1480.0,838.3L1480.5,838.2L1480.6,838.1L1480.9,837.3L1481.2,837.2L1481.6,837.3L1481.8,837.4L1481.9,837.7L1482.5,837.9L1483.0,838.1L1483.4,838.3L1484.1,838.9L1484.9,839.0L1485.9,839.0L1486.4,839.0L1486.8,839.0L1487.1,839.0L1488.1,838.6L1488.5,838.5L1489.0,838.6L1489.5,838.7Z" fill-rule="evenodd"/><path data-code="PK" class="world-country" d="M1426.5,787.7L1426.7,788.3L1427.1,789.2L1427.4,789.8L1427.7,790.5L1427.8,790.9L1428.0,791.4L1427.9,791.8L1427.8,792.2L1427.2,792.6L1426.6,792.9L1426.4,793.0L1426.4,793.2L1426.1,793.6L1425.5,794.0L1425.1,794.0L1424.8,793.8L1423.2,794.4L1422.5,794.4L1421.9,794.8L1421.5,795.2L1420.6,795.6L1420.0,795.6L1419.2,795.3L1418.1,794.9L1417.7,794.6L1417.3,794.7L1416.4,794.6L1415.5,794.4L1414.4,794.1L1413.9,794.0L1412.8,793.8L1412.1,794.1L1411.4,794.4L1410.9,794.5L1410.5,795.4L1410.3,795.7L1410.1,796.1L1410.0,796.4L1410.1,796.8L1410.7,797.0L1411.0,797.3L1411.0,797.7L1410.8,798.0L1410.6,798.2L1410.6,798.4L1410.7,798.6L1410.8,798.8L1411.7,798.9L1412.3,798.9L1412.5,799.0L1412.5,799.3L1412.3,799.7L1411.5,800.0L1411.1,800.4L1411.0,800.8L1411.0,801.2L1411.1,801.4L1411.5,801.7L1411.8,802.0L1411.9,802.2L1411.9,802.6L1411.8,803.0L1411.4,803.6L1411.1,804.0L1411.1,804.1L1411.1,804.3L1411.4,804.6L1411.8,805.1L1412.3,805.5L1412.7,805.6L1412.8,805.7L1412.9,806.1L1412.9,806.5L1412.8,806.9L1413.1,807.1L1413.8,807.1L1414.4,807.2L1414.6,807.1L1414.8,807.2L1414.7,808.2L1414.8,808.8L1414.9,808.9L1415.5,809.2L1416.6,809.2L1417.2,809.4L1418.0,809.7L1418.3,810.1L1418.5,810.4L1418.5,810.8L1418.1,811.3L1417.4,811.5L1417.1,811.6L1415.2,812.5L1414.6,812.9L1414.2,813.4L1414.0,813.7L1413.9,814.1L1414.3,815.3L1414.4,815.7L1414.1,817.0L1414.0,817.5L1414.1,817.8L1414.5,818.0L1414.6,818.3L1414.6,818.5L1413.9,819.0L1413.2,819.4L1413.0,819.4L1412.3,820.2L1411.2,821.8L1410.6,822.4L1410.5,822.6L1410.5,822.9L1410.7,823.3L1410.7,823.7L1410.5,824.1L1410.1,824.6L1409.2,824.9L1408.2,825.3L1407.7,825.6L1407.3,826.6L1407.0,827.6L1406.8,828.0L1406.3,829.2L1405.3,831.0L1405.0,831.4L1403.5,832.2L1401.9,833.1L1401.6,833.5L1401.3,834.3L1401.0,835.2L1400.7,835.7L1399.7,836.7L1399.4,837.6L1399.3,838.1L1398.4,838.4L1397.5,838.7L1396.1,838.8L1395.5,838.9L1393.7,839.6L1393.3,839.7L1393.0,839.6L1392.7,839.3L1392.5,838.9L1392.4,838.2L1392.1,838.0L1391.6,837.7L1391.1,837.7L1390.7,838.0L1390.2,838.3L1390.0,838.5L1389.7,838.8L1389.2,839.8L1388.3,841.2L1387.4,842.2L1387.0,842.5L1386.8,842.7L1386.5,843.0L1386.3,843.4L1386.1,844.4L1385.9,845.3L1386.0,845.5L1386.1,845.7L1386.7,846.0L1387.4,846.4L1388.4,846.7L1389.2,846.7L1389.5,846.9L1389.7,847.2L1389.8,847.4L1389.7,848.2L1389.6,849.0L1389.3,849.9L1389.3,850.4L1389.4,850.9L1390.4,852.1L1390.7,852.3L1391.4,852.3L1391.7,852.3L1392.1,852.1L1392.3,852.2L1392.5,852.4L1392.5,852.6L1392.5,853.9L1392.8,854.4L1393.3,855.2L1393.8,856.1L1394.2,857.1L1394.6,858.0L1394.7,858.4L1394.5,858.6L1394.3,858.8L1394.3,859.1L1394.3,859.4L1394.3,859.6L1394.5,859.9L1394.7,860.0L1394.7,860.2L1394.3,860.4L1394.0,860.4L1393.8,860.5L1393.4,861.0L1393.2,861.1L1392.9,861.1L1392.6,861.1L1392.1,860.9L1392.0,860.6L1392.0,860.2L1391.9,860.0L1391.6,860.1L1390.5,860.4L1389.4,860.8L1389.3,861.1L1389.0,861.4L1388.5,861.5L1387.8,861.6L1387.3,861.5L1386.9,861.2L1386.4,860.9L1385.8,860.9L1384.6,861.0L1384.0,861.0L1383.6,860.8L1383.2,860.9L1382.8,860.8L1382.6,861.0L1382.4,861.0L1382.2,860.7L1382.1,860.7L1382.0,860.7L1381.9,860.8L1381.8,861.0L1381.8,862.8L1381.0,862.8L1380.5,862.8L1379.9,862.9L1379.3,863.0L1379.1,863.2L1378.7,863.5L1378.6,863.8L1378.4,864.1L1378.2,863.7L1378.0,863.5L1377.8,863.6L1377.5,863.6L1377.0,863.2L1376.8,863.6L1375.9,863.7L1375.8,863.4L1375.8,863.1L1375.4,863.3L1375.0,863.0L1374.9,862.5L1374.7,862.3L1374.6,862.2L1374.3,862.0L1373.9,861.5L1373.9,861.0L1373.8,860.3L1373.2,858.0L1372.8,857.8L1370.6,857.3L1370.5,856.9L1370.6,855.8L1370.5,855.1L1369.8,854.2L1369.6,853.5L1369.0,852.9L1368.5,852.8L1367.9,852.9L1367.6,853.1L1367.4,853.5L1368.6,853.4L1368.9,853.5L1369.3,853.7L1368.9,853.7L1368.5,853.6L1368.0,853.6L1366.0,853.9L1364.9,854.3L1363.4,854.2L1361.5,854.6L1359.9,854.6L1359.2,855.4L1358.9,855.2L1358.6,855.0L1356.4,854.4L1356.2,854.2L1355.9,854.0L1355.5,854.3L1355.2,854.4L1354.0,854.1L1353.1,854.3L1352.8,854.7L1352.7,855.2L1351.6,855.1L1350.9,854.9L1350.1,855.1L1348.1,854.9L1347.6,854.9L1346.9,855.3L1346.6,855.5L1346.2,855.7L1345.8,855.3L1345.5,855.1L1345.3,855.2L1344.9,855.5L1343.9,855.7L1343.0,855.6L1342.0,855.3L1342.2,855.2L1342.3,854.7L1342.4,852.9L1342.6,852.2L1342.6,851.9L1342.6,851.8L1343.0,851.4L1343.1,851.3L1343.2,850.4L1343.4,849.3L1343.6,848.9L1343.7,848.8L1344.9,848.4L1345.1,848.0L1345.8,848.1L1345.8,848.0L1345.9,847.7L1346.2,847.3L1346.6,847.0L1346.9,846.9L1348.0,846.6L1348.6,846.4L1348.8,846.3L1350.5,846.4L1350.9,846.3L1350.9,846.2L1351.0,845.1L1351.3,845.0L1351.4,844.9L1351.3,844.1L1351.3,843.6L1351.7,843.3L1351.7,843.2L1351.4,842.8L1351.1,842.6L1350.9,842.5L1349.5,842.8L1349.0,842.7L1348.7,842.6L1348.6,842.5L1348.7,842.2L1348.7,841.9L1348.9,841.3L1349.0,841.0L1348.8,839.1L1348.6,837.8L1348.7,836.6L1348.7,836.3L1348.6,836.3L1348.4,836.3L1347.6,836.4L1346.9,835.6L1346.4,835.2L1345.2,834.8L1344.6,834.8L1343.8,834.4L1343.1,833.6L1342.4,832.9L1342.0,832.4L1341.7,831.5L1340.8,829.8L1340.8,829.4L1340.7,829.2L1339.7,828.1L1339.1,827.3L1338.0,826.1L1340.1,826.8L1341.8,827.3L1344.4,828.2L1346.5,828.8L1347.1,828.9L1353.2,828.4L1355.4,828.8L1356.1,829.0L1356.2,828.9L1356.5,828.6L1357.0,828.3L1357.7,828.1L1358.5,827.9L1359.5,827.9L1360.2,827.9L1360.7,828.0L1361.6,828.0L1362.1,827.9L1363.7,827.4L1364.8,827.1L1366.5,826.6L1367.7,826.2L1368.0,826.0L1368.3,825.7L1368.4,825.4L1368.0,824.9L1368.0,824.4L1368.2,823.9L1368.4,823.1L1368.3,821.9L1368.3,821.2L1368.6,820.0L1368.9,819.3L1369.4,818.9L1369.8,818.7L1370.0,818.6L1370.1,818.4L1370.7,817.4L1371.3,817.0L1371.8,816.7L1372.4,816.8L1372.9,817.1L1373.8,817.3L1374.7,817.2L1375.5,816.9L1375.9,816.7L1376.3,816.5L1376.3,816.2L1375.8,816.0L1375.5,815.8L1375.4,815.4L1375.7,815.2L1376.3,815.1L1377.9,814.3L1378.5,813.7L1378.7,813.5L1379.0,813.4L1379.6,813.7L1380.2,813.8L1380.7,813.5L1381.1,813.5L1381.5,813.8L1381.7,814.1L1382.1,814.5L1382.6,814.6L1383.2,814.4L1383.8,813.9L1384.4,813.2L1384.9,812.6L1384.8,810.6L1384.7,809.3L1384.9,808.7L1385.3,808.3L1385.6,807.7L1385.6,807.2L1385.9,806.7L1386.1,805.5L1386.5,805.2L1387.2,805.0L1388.4,804.9L1389.4,804.3L1390.3,803.7L1390.5,803.1L1390.1,802.6L1389.6,801.5L1389.2,800.8L1388.2,799.6L1388.3,798.9L1388.9,798.6L1390.3,799.1L1390.7,799.2L1391.2,799.3L1392.5,799.3L1393.6,799.1L1394.7,798.6L1395.0,798.1L1394.9,797.6L1395.0,797.1L1395.0,796.5L1394.6,796.0L1394.3,795.7L1394.3,795.4L1394.5,795.2L1394.8,794.9L1395.1,794.4L1395.7,793.7L1396.1,793.1L1396.4,792.8L1397.0,792.4L1397.3,791.8L1397.5,791.5L1397.8,791.2L1397.9,791.0L1397.8,790.8L1397.7,790.5L1397.5,790.2L1397.5,790.0L1397.6,789.7L1397.8,789.4L1397.7,789.1L1397.6,788.5L1397.3,788.1L1397.1,787.3L1396.8,786.5L1396.7,786.2L1396.3,785.8L1395.7,785.4L1395.5,785.1L1395.7,784.5L1396.2,784.2L1397.0,783.4L1397.5,782.8L1397.9,782.4L1398.4,782.4L1398.7,782.4L1399.0,782.0L1399.6,781.7L1400.5,781.0L1400.9,780.5L1401.4,780.3L1401.8,780.2L1402.4,780.1L1403.0,779.8L1403.5,779.6L1404.3,779.6L1405.5,779.5L1406.2,779.4L1407.8,779.3L1409.6,779.2L1409.8,779.2L1410.6,779.5L1411.1,779.7L1411.3,779.7L1412.2,779.2L1413.5,778.6L1414.1,778.3L1414.4,778.2L1415.0,778.2L1415.4,778.4L1415.8,778.6L1416.1,778.8L1416.4,778.7L1417.0,778.5L1417.5,778.6L1418.6,779.1L1418.8,779.3L1419.0,780.3L1419.2,780.4L1419.9,780.1L1420.4,780.3L1421.0,780.6L1421.3,780.9L1421.6,781.2L1421.9,781.8L1422.0,782.2L1422.1,782.7L1422.0,784.2L1421.9,784.5L1421.7,784.8L1421.7,785.0L1421.9,785.3L1422.3,785.4L1422.6,785.5L1422.8,785.7L1423.0,786.5L1423.2,786.7L1423.6,786.7L1424.4,786.5L1425.0,786.2L1425.3,786.1L1425.4,786.9L1425.7,787.2L1426.3,787.6L1426.5,787.7Z" fill-rule="evenodd"/><circle data-code="MV" class="world-country world-country-marker" cx="1406.8" cy="982.2" r="6"/></svg>