<?xml version="1.0" encoding="UTF-8"?>
<svg xmlns="http://www.w3.org/2000/svg" width="960" height="540" viewBox="0 0 960 540">
<rect width="100%" height="100%" fill="white"/>
<text x="480.0" y="30" text-anchor="middle" font-size="20" font-family="sans-serif">Topic 12: three-phase line loss vs simultaneous train count</text>
<line x1="92" y1="462" x2="925" y2="462" stroke="black"/>
<line x1="92" y1="54" x2="92" y2="462" stroke="black"/>
<line x1="92.00" y1="462" x2="92.00" y2="468" stroke="black"/>
<text x="92.00" y="486" text-anchor="middle" font-size="12" font-family="sans-serif">0</text>
<line x1="300.25" y1="462" x2="300.25" y2="468" stroke="black"/>
<text x="300.25" y="486" text-anchor="middle" font-size="12" font-family="sans-serif">1</text>
<line x1="508.50" y1="462" x2="508.50" y2="468" stroke="black"/>
<text x="508.50" y="486" text-anchor="middle" font-size="12" font-family="sans-serif">2</text>
<line x1="716.75" y1="462" x2="716.75" y2="468" stroke="black"/>
<text x="716.75" y="486" text-anchor="middle" font-size="12" font-family="sans-serif">3</text>
<line x1="925.00" y1="462" x2="925.00" y2="468" stroke="black"/>
<text x="925.00" y="486" text-anchor="middle" font-size="12" font-family="sans-serif">4</text>
<line x1="86" y1="462.00" x2="92" y2="462.00" stroke="black"/>
<text x="82" y="466.00" text-anchor="end" font-size="12" font-family="sans-serif">-0.7282</text>
<line x1="92" y1="462.00" x2="925" y2="462.00" stroke="#dddddd" stroke-width="1"/>
<line x1="86" y1="380.40" x2="92" y2="380.40" stroke="black"/>
<text x="82" y="384.40" text-anchor="end" font-size="12" font-family="sans-serif">1.384</text>
<line x1="92" y1="380.40" x2="925" y2="380.40" stroke="#dddddd" stroke-width="1"/>
<line x1="86" y1="298.80" x2="92" y2="298.80" stroke="black"/>
<text x="82" y="302.80" text-anchor="end" font-size="12" font-family="sans-serif">3.495</text>
<line x1="92" y1="298.80" x2="925" y2="298.80" stroke="#dddddd" stroke-width="1"/>
<line x1="86" y1="217.20" x2="92" y2="217.20" stroke="black"/>
<text x="82" y="221.20" text-anchor="end" font-size="12" font-family="sans-serif">5.607</text>
<line x1="92" y1="217.20" x2="925" y2="217.20" stroke="#dddddd" stroke-width="1"/>
<line x1="86" y1="135.60" x2="92" y2="135.60" stroke="black"/>
<text x="82" y="139.60" text-anchor="end" font-size="12" font-family="sans-serif">7.719</text>
<line x1="92" y1="135.60" x2="925" y2="135.60" stroke="#dddddd" stroke-width="1"/>
<line x1="86" y1="54.00" x2="92" y2="54.00" stroke="black"/>
<text x="82" y="58.00" text-anchor="end" font-size="12" font-family="sans-serif">9.831</text>
<line x1="92" y1="54.00" x2="925" y2="54.00" stroke="#dddddd" stroke-width="1"/>
<text x="508.5" y="516" text-anchor="middle" font-size="14" font-family="sans-serif">simultaneous train count n</text>
<text x="23" y="258.0" text-anchor="middle" font-size="14" font-family="sans-serif" transform="rotate(-90 23 258.0)">three-phase line loss [kW]</text>
<polyline fill="none" stroke="#1f77b4" stroke-width="2.5" points="92.00,433.86 300.25,411.94 508.50,346.09 716.75,236.20 925.00,82.14"/>
<circle cx="92.00" cy="433.86" r="4" fill="#1f77b4"/>
<circle cx="300.25" cy="411.94" r="4" fill="#1f77b4"/>
<circle cx="508.50" cy="346.09" r="4" fill="#1f77b4"/>
<circle cx="716.75" cy="236.20" r="4" fill="#1f77b4"/>
<circle cx="925.00" cy="82.14" r="4" fill="#1f77b4"/>
</svg>
